<svg width="443" height="254" xmlns="http://www.w3.org/2000/svg" xmlns:xlink="http://www.w3.org/1999/xlink" xml:space="preserve" overflow="hidden"><defs><clipPath id="clip0"><rect x="121" y="334" width="443" height="254"/></clipPath><linearGradient x1="121" y1="461" x2="564" y2="461" gradientUnits="userSpaceOnUse" spreadMethod="reflect" id="fill1"><stop offset="0" stop-color="#001E96"/><stop offset="0.5" stop-color="#005CD9"/><stop offset="1" stop-color="#008CE3"/></linearGradient></defs><g clip-path="url(#clip0)" transform="translate(-121 -334)"><path d="M347.22 363.005C344.232 364.612 343.115 368.33 344.723 371.31L344.72 371.307C344.897 371.636 345.111 371.936 345.336 372.218 342.127 375.266 339.18 378.661 336.564 382.473 336.564 382.473 356.739 283.968 517.2 367.803 517.2 367.803 460.593 347.03 408.468 349.578 409.374 347.122 409.296 344.318 407.953 341.83 405.47 337.229 399.713 335.506 395.097 337.983 390.483 340.461 388.756 346.204 391.24 350.809 391.279 350.881 391.323 350.948 391.37 351.013 391.391 351.042 391.412 351.071 391.434 351.101L391.438 351.106C391.488 351.174 391.539 351.243 391.584 351.315 378.202 353.486 365.621 357.663 354.957 364.629 353.148 362.322 349.895 361.567 347.22 363.005ZM429.955 414.665C431.461 417.459 434.953 418.502 437.753 417 440.553 415.498 441.6 412.015 440.094 409.221 439.048 407.284 437.048 406.217 434.991 406.227L405.596 351.77C407.858 349.293 408.455 345.589 406.771 342.473 404.639 338.524 399.702 337.046 395.747 339.173 391.788 341.3 390.306 346.224 392.439 350.173 394.122 353.289 397.55 354.832 400.868 354.312L430.262 408.769C429.12 410.479 428.912 412.732 429.959 414.669L429.955 414.665ZM382.478 428.326C379.183 430.097 375.071 428.866 373.296 425.577 371.893 422.977 372.393 419.889 374.284 417.826L350.205 373.213C348.461 373.237 346.761 372.333 345.875 370.695 344.607 368.347 345.486 365.418 347.841 364.154 350.194 362.889 353.131 363.77 354.399 366.118 355.284 367.756 355.104 369.669 354.122 371.11L378.202 415.722C380.968 415.284 383.83 416.568 385.234 419.168 387.009 422.454 385.776 426.555 382.478 428.326ZM294.82 466.95C296.285 469.67 299.684 470.686 302.407 469.221 305.132 467.76 306.151 464.368 304.683 461.653 303.616 459.678 301.528 458.619 299.423 458.737L280.6 423.868C282.314 421.873 282.732 418.964 281.407 416.514 279.69 413.329 275.711 412.141 272.519 413.853 269.327 415.566 268.134 419.535 269.851 422.719 271.173 425.169 273.837 426.423 276.45 426.094L295.273 460.963C294.012 462.649 293.75 464.973 294.816 466.948L294.82 466.95ZM342.931 520.997 373.143 520.997 373.143 520.994C394.899 520.994 409.814 534.073 409.814 554.164 409.814 574.255 394.899 587.334 373.143 587.334L342.931 587.334 342.931 520.997ZM358.323 574.734 372.383 574.734 372.383 574.737C385.585 574.737 394.227 566.87 394.227 554.167 394.227 541.465 385.585 533.598 372.383 533.598L358.323 533.598 358.323 574.734ZM121 520.997 148.36 520.997C165.841 520.997 176.668 530.009 176.668 544.598 176.668 559.186 165.837 568.189 148.36 568.189L133.343 568.189 133.343 587.334 121 587.334 121 520.997ZM133.343 557.766 147.791 557.766C158.618 557.766 164.223 552.944 164.223 544.598 164.223 536.252 158.618 531.419 147.791 531.419L133.343 531.419 133.343 557.766ZM198.713 536.731 198.713 544.119 198.717 544.119C202.137 538.82 208.307 536.163 216.762 536.163L216.762 547.442C215.713 547.252 214.869 547.153 214.01 547.153 204.985 547.153 199.282 552.465 199.282 562.788L199.282 587.334 187.406 587.334 187.406 536.731 198.713 536.731ZM249.154 577.857C241.847 577.857 236.066 573.357 234.549 566.01L222.441 566.01C224.257 579.046 234.985 588 249.154 588 263.323 588 274.164 579.043 275.97 566.01L263.862 566.01C262.346 573.354 256.554 577.857 249.158 577.857L249.154 577.857ZM234.608 557.766 222.486 557.766C224.414 544.897 234.904 536.163 249.154 536.163 263.405 536.163 274.011 544.897 275.926 557.766L263.804 557.766C262.189 550.585 256.36 546.209 249.154 546.209 241.95 546.209 236.222 550.589 234.608 557.766ZM310.815 546.209C315.85 546.209 320.419 548.387 323.457 553.219L332.571 547.907C328.684 540.227 320.797 536.163 310.913 536.163 294.86 536.163 283.454 546.864 283.454 562.03 283.454 577.197 294.86 588 310.913 588 320.794 588 328.68 583.732 332.571 576.154L323.457 570.842C320.415 575.675 315.85 577.853 310.815 577.853 302.08 577.853 295.429 571.885 295.429 562.03 295.429 552.176 302.08 546.209 310.815 546.209ZM467.195 561.276 434.132 520.997 421.4 520.997 421.4 587.334 436.605 587.334 436.605 547.065 469.757 587.334 482.389 587.334 482.389 520.997 467.195 520.997 467.195 561.276ZM519.064 520.997 534.269 520.997 564 587.334 547.849 587.334 541.969 573.123 537.121 561.467 536.63 560.277 526.573 536.065 516.022 561.467 511.099 573.123 510.864 573.667 505.195 587.334 489.431 587.334 519.064 520.997ZM325.573 464.504C326.698 466.584 329.3 467.366 331.385 466.244 333.47 465.122 334.254 462.526 333.13 460.447 332.496 459.274 331.392 458.537 330.179 458.295L309.159 419.351C311.65 416.928 312.375 413.088 310.641 409.881 308.546 406 303.695 404.549 299.804 406.639 295.914 408.728 294.459 413.567 296.554 417.449 298.285 420.656 301.899 422.168 305.299 421.428L326.009 459.794C324.96 461.095 324.732 462.944 325.576 464.507L325.573 464.504ZM284.2 492.156C281.871 493.406 278.961 492.536 277.707 490.212L277.707 490.215C276.883 488.686 276.992 486.919 277.816 485.526L248.998 432.139C245.377 432.873 241.554 431.248 239.711 427.837 237.459 423.664 239.023 418.461 243.206 416.214 247.39 413.968 252.606 415.528 254.857 419.701 256.701 423.114 255.955 427.191 253.345 429.801L282.163 483.187C283.786 483.269 285.325 484.15 286.149 485.679 287.403 488.003 286.531 490.905 284.2 492.156ZM414.539 432.163C410.583 434.29 405.647 432.812 403.514 428.863L403.511 428.863C401.747 425.591 402.489 421.672 405.037 419.208L381.882 376.312C380.181 376.323 378.526 375.442 377.664 373.842 376.424 371.538 377.286 368.666 379.595 367.426 381.905 366.186 384.784 367.045 386.028 369.349 386.89 370.95 386.719 372.812 385.772 374.223L408.929 417.118C412.393 416.354 416.082 417.89 417.847 421.163 419.98 425.111 418.498 430.036 414.539 432.163ZM228.898 436.268C227.644 433.944 224.735 433.073 222.404 434.324 220.074 435.575 219.202 438.477 220.455 440.801 221.287 442.341 222.844 443.224 224.476 443.292L248.456 487.721C246.668 489.794 246.228 492.825 247.608 495.377 249.393 498.687 253.533 499.924 256.851 498.143 260.169 496.363 261.409 492.234 259.624 488.924 258.247 486.372 255.471 485.07 252.749 485.417L228.768 440.988C229.61 439.588 229.729 437.808 228.898 436.268ZM346.13 443.099C346.13 443.099 341.906 450.262 332.758 458.846 333.147 459.206 333.494 459.618 333.76 460.107 335.071 462.533 334.159 465.561 331.726 466.869 329.443 468.096 326.65 467.355 325.229 465.255 315.928 472.436 303.317 479.629 287.052 483.891 287.287 484.187 287.512 484.5 287.696 484.843 289.41 488.021 288.221 491.982 285.035 493.692 281.85 495.401 277.877 494.215 276.164 491.038 275.343 489.515 275.203 487.816 275.615 486.266 270.85 487.011 265.807 487.487 260.507 487.666 260.601 487.813 260.71 487.948 260.806 488.094 260.837 488.141 260.867 488.19 260.894 488.241 263.058 492.251 261.556 497.25 257.536 499.408 253.515 501.565 248.504 500.067 246.34 496.057 244.815 493.226 245.145 489.92 246.869 487.449 224.752 486.032 198.54 479.365 167.8 464.229 167.8 464.229 292.261 564.437 346.134 443.092L346.13 443.099ZM219.553 441.287C220.115 442.327 220.953 443.122 221.924 443.642L221.917 443.645C214.987 450.177 211.741 455.441 211.741 455.441 215.366 433.277 230.646 418.934 248.33 409.663 277.101 394.578 311.438 394.15 341.187 407.21 352.266 412.072 362.691 415.413 372.464 417.554 370.684 420.058 370.332 423.436 371.893 426.325 374.083 430.382 379.159 431.901 383.227 429.716 386.787 427.803 388.399 423.684 387.275 419.966 392.409 420.51 397.338 420.727 402.046 420.653 400.667 423.375 400.588 426.702 402.148 429.594 404.687 434.294 410.56 436.054 415.272 433.523 419.983 430.99 421.748 425.132 419.21 420.432 418.968 419.987 418.668 419.593 418.372 419.199 422.341 418.549 426.136 417.731 429.713 416.741 431.88 419.124 435.457 419.844 438.425 418.25 440.67 417.047 441.994 414.819 442.169 412.456 465.523 402.751 477.573 387.907 477.573 387.907 476.806 389.155 476.029 390.374 475.249 391.571 447.684 433.739 393.502 450.017 346.652 431.299 333.31 425.971 321.09 422.583 309.919 420.687 313.107 417.836 314.072 413.098 311.953 409.174 309.469 404.572 303.715 402.849 299.099 405.327 294.482 407.804 292.759 413.544 295.242 418.148 295.413 418.465 295.634 418.736 295.835 419.025 291.573 418.75 287.508 418.726 283.601 418.873 283.502 417.839 283.202 416.806 282.678 415.834 280.583 411.953 275.732 410.503 271.841 412.592 268.836 414.206 267.306 417.459 267.722 420.646 264.254 421.306 260.97 422.128 257.846 423.065 257.746 421.598 257.369 420.129 256.622 418.75 253.846 413.609 247.417 411.682 242.262 414.451 237.108 417.221 235.177 423.633 237.953 428.775 238.365 429.542 238.883 430.212 239.442 430.831 236.025 432.737 232.959 434.749 230.206 436.764 230.097 436.435 229.967 436.104 229.797 435.785 228.274 432.965 224.745 431.908 221.917 433.427 219.089 434.946 218.03 438.467 219.553 441.287Z" fill="url(#fill1)" fill-rule="evenodd"/></g></svg>